<?xml version="1.0" encoding="UTF-8" standalone="no"?>
<!-- Created with Inkscape (http://www.inkscape.org/) -->

<svg
   width="210mm"
   height="297mm"
   viewBox="0 0 210 297"
   version="1.1"
   id="svg1"
   xml:space="preserve"
   inkscape:version="1.3 (0e150ed6c4, 2023-07-21)"
   sodipodi:docname="logo in vector.svg"
   xmlns:inkscape="http://www.inkscape.org/namespaces/inkscape"
   xmlns:sodipodi="http://sodipodi.sourceforge.net/DTD/sodipodi-0.dtd"
   xmlns:xlink="http://www.w3.org/1999/xlink"
   xmlns="http://www.w3.org/2000/svg"
   xmlns:svg="http://www.w3.org/2000/svg"><sodipodi:namedview
     id="namedview1"
     pagecolor="#ffffff"
     bordercolor="#000000"
     borderopacity="0.25"
     inkscape:showpageshadow="2"
     inkscape:pageopacity="0.0"
     inkscape:pagecheckerboard="0"
     inkscape:deskcolor="#d1d1d1"
     inkscape:document-units="mm"
     inkscape:zoom="1"
     inkscape:cx="422"
     inkscape:cy="706.5"
     inkscape:window-width="1920"
     inkscape:window-height="1017"
     inkscape:window-x="-8"
     inkscape:window-y="-8"
     inkscape:window-maximized="1"
     inkscape:current-layer="layer3"
     showgrid="false"
     showguides="true" /><defs
     id="defs1"><inkscape:path-effect
       effect="bend_path"
       id="path-effect257"
       is_visible="true"
       lpeversion="1"
       bendpath="m 109.93596,84.281715 c 11.38152,3.281763 27.06287,-11.480289 36.62275,0"
       prop_scale="1"
       scale_y_rel="false"
       vertical="false"
       hide_knot="false"
       bendpath-nodetypes="cc" /><linearGradient
       id="linearGradient243"
       inkscape:collect="always"><stop
         style="stop-color:#fd500c;stop-opacity:0;"
         offset="0"
         id="stop244" /><stop
         style="stop-color:#fd500c;stop-opacity:1;"
         offset="0.77491963"
         id="stop243" /></linearGradient><linearGradient
       id="linearGradient238"
       inkscape:collect="always"><stop
         style="stop-color:#3caf0f;stop-opacity:0;"
         offset="0"
         id="stop240" /><stop
         style="stop-color:#3caf0f;stop-opacity:1;"
         offset="1"
         id="stop239" /></linearGradient><linearGradient
       id="linearGradient237"
       inkscape:collect="always"><stop
         style="stop-color:#3caf0f;stop-opacity:0;"
         offset="0"
         id="stop238" /><stop
         style="stop-color:#3caf0f;stop-opacity:1;"
         offset="1"
         id="stop237" /></linearGradient><linearGradient
       id="linearGradient234"
       inkscape:collect="always"><stop
         style="stop-color:#760af6;stop-opacity:1;"
         offset="0"
         id="stop235" /><stop
         style="stop-color:#760af6;stop-opacity:0;"
         offset="1"
         id="stop236" /></linearGradient><linearGradient
       id="linearGradient233"
       inkscape:collect="always"><stop
         style="stop-color:#760af6;stop-opacity:0;"
         offset="0"
         id="stop234" /><stop
         style="stop-color:#760af6;stop-opacity:1;"
         offset="0.90996784"
         id="stop233" /></linearGradient><linearGradient
       id="linearGradient226"
       inkscape:collect="always"><stop
         style="stop-color:#0a2ce0;stop-opacity:0;"
         offset="0.04906902"
         id="stop228" /><stop
         style="stop-color:#0a2ce0;stop-opacity:0.38431373;"
         offset="0.25320512"
         id="stop229" /><stop
         style="stop-color:#0a2ce0;stop-opacity:0.76862745;"
         offset="0.68589741"
         id="stop227" /></linearGradient><linearGradient
       id="swatch223"><stop
         style="stop-color:#f8d926;stop-opacity:1;"
         offset="0"
         id="stop224" /><stop
         style="stop-color:#f8da29;stop-opacity:1;"
         offset="0.53205127"
         id="stop226" /><stop
         style="stop-color:#f8da29;stop-opacity:0;"
         offset="1"
         id="stop225" /></linearGradient><linearGradient
       id="linearGradient215"
       inkscape:collect="always"><stop
         style="stop-color:#f8da28;stop-opacity:0.0040568"
         offset="0"
         id="stop217" /><stop
         style="stop-color:#dfc007;stop-opacity:0.99594319;"
         offset="1"
         id="stop216" /></linearGradient><linearGradient
       id="linearGradient214"
       inkscape:collect="always"><stop
         style="stop-color:#0a79e0;stop-opacity:0;"
         offset="0"
         id="stop215" /><stop
         style="stop-color:#0a16e0;stop-opacity:1;"
         offset="1"
         id="stop214" /></linearGradient><inkscape:path-effect
       effect="powerstroke"
       id="path-effect198"
       is_visible="true"
       lpeversion="1.3"
       scale_width="1"
       interpolator_type="CubicBezierJohan"
       interpolator_beta="0.2"
       start_linecap_type="zerowidth"
       end_linecap_type="zerowidth"
       offset_points="1,0.17192496"
       linejoin_type="extrp_arc"
       miter_limit="4"
       not_jump="false"
       sort_points="true"
       message="&lt;b&gt;Ctrl + click&lt;/b&gt; on existing node and move it" /><inkscape:path-effect
       effect="fill_between_many"
       method="bsplinespiro"
       autoreverse="false"
       close="false"
       join="false"
       linkedpaths="#path198,0,1"
       id="path-effect199" /><radialGradient
       inkscape:collect="always"
       xlink:href="#linearGradient214"
       id="radialGradient215"
       cx="173.26022"
       cy="115.79845"
       fx="173.26022"
       fy="115.79845"
       r="9.2608891"
       gradientUnits="userSpaceOnUse" /><filter
       inkscape:collect="always"
       style="color-interpolation-filters:sRGB"
       id="filter215"
       x="-0.051028398"
       y="-0.05102901"
       width="1.1020563"
       height="1.102057"><feGaussianBlur
         inkscape:collect="always"
         stdDeviation="0.30005281"
         id="feGaussianBlur215" /></filter><radialGradient
       inkscape:collect="always"
       xlink:href="#linearGradient215"
       id="radialGradient217"
       cx="139.43648"
       cy="126.4995"
       fx="139.43648"
       fy="126.4995"
       r="9.2608891"
       gradientUnits="userSpaceOnUse" /><filter
       inkscape:collect="always"
       style="color-interpolation-filters:sRGB"
       id="filter217"
       x="-0.027043822"
       y="-0.027043822"
       width="1.0540876"
       height="1.0540876"><feGaussianBlur
         inkscape:collect="always"
         stdDeviation="0.20870819"
         id="feGaussianBlur217" /></filter><linearGradient
       inkscape:collect="always"
       xlink:href="#swatch223"
       id="linearGradient225"
       gradientUnits="userSpaceOnUse"
       x1="136.15422"
       y1="137.5137"
       x2="138.97505"
       y2="153.13907" /><linearGradient
       inkscape:collect="always"
       xlink:href="#linearGradient226"
       id="linearGradient228"
       x1="146.5685"
       y1="122.84197"
       x2="160.29558"
       y2="118.70585"
       gradientUnits="userSpaceOnUse" /><radialGradient
       inkscape:collect="always"
       xlink:href="#linearGradient233"
       id="radialGradient234"
       cx="148.12242"
       cy="157.64732"
       fx="148.12242"
       fy="157.64732"
       r="9.2608891"
       gradientUnits="userSpaceOnUse" /><filter
       inkscape:collect="always"
       style="color-interpolation-filters:sRGB"
       id="filter234"
       x="-0.027779673"
       y="-0.027779673"
       width="1.0555593"
       height="1.0555593"><feGaussianBlur
         inkscape:collect="always"
         stdDeviation="0.21438706"
         id="feGaussianBlur234" /></filter><linearGradient
       inkscape:collect="always"
       xlink:href="#linearGradient234"
       id="linearGradient236"
       x1="154.51037"
       y1="162.09588"
       x2="168.68359"
       y2="162.09588"
       gradientUnits="userSpaceOnUse" /><radialGradient
       inkscape:collect="always"
       xlink:href="#linearGradient237"
       id="radialGradient238"
       cx="182.80426"
       cy="149.26842"
       fx="182.80426"
       fy="149.26842"
       r="9.2608891"
       gradientUnits="userSpaceOnUse" /><filter
       inkscape:collect="always"
       style="color-interpolation-filters:sRGB"
       id="filter238"
       x="-0.022836126"
       y="-0.022836126"
       width="1.0456723"
       height="1.0456723"><feGaussianBlur
         inkscape:collect="always"
         stdDeviation="0.17623569"
         id="feGaussianBlur238" /></filter><linearGradient
       inkscape:collect="always"
       xlink:href="#linearGradient238"
       id="linearGradient240"
       x1="173.31024"
       y1="136.85834"
       x2="183.22569"
       y2="136.85834"
       gradientUnits="userSpaceOnUse" /><filter
       inkscape:collect="always"
       style="color-interpolation-filters:sRGB"
       id="filter240"
       x="-0.091602375"
       y="-0.066794139"
       width="1.1832047"
       height="1.1335883"><feGaussianBlur
         inkscape:collect="always"
         stdDeviation="0.37844948"
         id="feGaussianBlur240" /></filter><filter
       inkscape:collect="always"
       style="color-interpolation-filters:sRGB"
       id="filter241"
       x="-0.099043508"
       y="-0.066460181"
       width="1.198087"
       height="1.1329204"><feGaussianBlur
         inkscape:collect="always"
         stdDeviation="0.3846225"
         id="feGaussianBlur241" /></filter><filter
       inkscape:collect="always"
       style="color-interpolation-filters:sRGB"
       id="filter242"
       x="-0.070637238"
       y="-0.11192286"
       width="1.1412745"
       height="1.2238457"><feGaussianBlur
         inkscape:collect="always"
         stdDeviation="0.41714881"
         id="feGaussianBlur242" /></filter><filter
       inkscape:collect="always"
       style="color-interpolation-filters:sRGB"
       id="filter243"
       x="-0.04721772"
       y="-0.069414896"
       width="1.0944354"
       height="1.1388298"><feGaussianBlur
         inkscape:collect="always"
         stdDeviation="0.27237855"
         id="feGaussianBlur243" /></filter><radialGradient
       inkscape:collect="always"
       xlink:href="#linearGradient243"
       id="radialGradient244"
       cx="162.20889"
       cy="137.85602"
       fx="162.20889"
       fy="137.85602"
       r="11.087398"
       gradientUnits="userSpaceOnUse" /><filter
       inkscape:collect="always"
       style="color-interpolation-filters:sRGB"
       id="filter244"
       x="-0.034846823"
       y="-0.034846823"
       width="1.0696936"
       height="1.0696936"><feGaussianBlur
         inkscape:collect="always"
         stdDeviation="0.32196714"
         id="feGaussianBlur244" /></filter><filter
       inkscape:collect="always"
       style="color-interpolation-filters:sRGB"
       id="filter3"
       x="-0.024795753"
       y="-0.055122866"
       width="1.0495915"
       height="1.1102457"><feGaussianBlur
         inkscape:collect="always"
         stdDeviation="0.91424584"
         id="feGaussianBlur3" /></filter></defs><g
     inkscape:label="Main logo"
     inkscape:groupmode="layer"
     id="layer1"
     style="display:inline" /><g
     inkscape:groupmode="layer"
     id="layer3"
     inkscape:label="background"><path
       id="rect3"
       style="opacity:1;fill:#ffffff;stroke:#f8f8f8;stroke-width:1.30607;stroke-opacity:0.99566197;filter:url(#filter3)"
       inkscape:label="grey gradient"
       d="M 40.976796,149.11359 H 150.6758 c 1.42049,0 2.56406,1.14357 2.56406,2.56406 v 46.52421 c 0,1.42049 -1.14357,2.56407 -2.56406,2.56407 H 40.976796 c -1.42049,0 -2.564062,-1.14358 -2.564062,-2.56407 v -46.52421 c 0,-1.42049 1.143572,-2.56406 2.564062,-2.56406 z"
       transform="matrix(0.86599585,0,0,0.86599585,-17.321378,-24.446934)" /></g><g
     inkscape:groupmode="layer"
     id="layer2"
     inkscape:label="Text"><g
       id="g3"
       transform="matrix(0.86599585,0,0,0.86599585,-17.321378,-24.446934)"><g
         id="g2"
         transform="translate(0,-1.6969695)"><path
           style="opacity:0.996283;fill:url(#linearGradient228);fill-opacity:0.768627;stroke:none;stroke-width:0.450001;stroke-opacity:0.995781;filter:url(#filter243)"
           d="m 160.42853,115.38693 c -1.79384,2.36336 -1.61048,6.30939 -0.42095,8.88671 -4.03558,-0.0131 -8.42205,-0.64056 -12.30107,0.46773 0.52882,-1.54769 -0.0267,-2.75165 -1.12254,-3.64823 2.0719,-1.39796 4.2692,-2.99418 6.47284,-3.94792 3.55896,-1.54033 6.83355,-2.00668 7.37172,-1.75829 z"
           id="path203"
           sodipodi:nodetypes="ccccsc"
           transform="matrix(0.73529738,0,0,0.77026989,-51.212016,68.480109)" /><path
           style="fill:url(#linearGradient240);fill-opacity:1;stroke:none;stroke-width:0.450001;filter:url(#filter240)"
           d="m 183.17997,143.6574 c -2.43513,-1.69514 -6.37028,-1.34964 -8.8965,-0.0551 -0.15288,-4.0327 0.29365,-8.44126 -0.97323,-12.27143 1.56813,0.46472 2.74823,-0.13983 3.59898,-1.27162 1.48198,2.01266 3.16722,4.14245 4.21078,6.305 1.68539,3.4926 2.28602,6.74525 2.05997,7.29318 z"
           id="path204"
           sodipodi:nodetypes="ccccsc"
           transform="matrix(0.73529738,0,0,0.77026989,-51.212016,68.480109)" /><path
           style="opacity:0.995575;fill:url(#linearGradient236);fill-opacity:1;stroke:none;stroke-width:0.450001;filter:url(#filter242)"
           d="m 154.51037,166.46656 c 1.93762,-2.24699 2.00051,-6.19677 0.97389,-8.84321 4.02692,0.26455 8.36577,1.16413 12.30631,0.29971 -0.62423,1.51172 -0.14482,2.74797 0.89302,3.71109 -2.15498,1.26614 -4.44748,2.72233 -6.70627,3.53689 -3.64803,1.31557 -6.94532,1.57697 -7.46695,1.29552 z"
           id="path205"
           sodipodi:nodetypes="ccccsc"
           transform="matrix(0.73529738,0,0,0.77026989,-51.212016,68.480109)" /><path
           style="mix-blend-mode:multiply;fill:url(#linearGradient225);fill-opacity:1;stroke:none;stroke-width:0.450001;filter:url(#filter241)"
           d="m 131.64761,138.38167 c 2.34905,1.81255 6.29641,1.66053 8.88309,0.4915 -0.0451,4.03535 -0.7074,8.4167 0.37005,12.30439 -1.54344,-0.54108 -2.75178,0.005 -3.65703,1.09354 -1.38146,-2.08293 -2.96018,-4.29283 -3.8964,-6.50398 -1.51203,-3.57108 -1.95236,-6.84926 -1.69971,-7.38545 z"
           id="path206"
           sodipodi:nodetypes="ccccsc"
           transform="matrix(0.73529738,0,0,0.77026989,-51.212016,68.480109)" /><path
           style="fill:url(#radialGradient217);fill-opacity:1;stroke:none;stroke-width:0.450001;filter:url(#filter217)"
           id="path207"
           sodipodi:type="arc"
           sodipodi:cx="136.66827"
           sodipodi:cy="129.37181"
           sodipodi:rx="9.2608891"
           sodipodi:ry="9.2608891"
           sodipodi:start="0"
           sodipodi:end="6.2628855"
           sodipodi:open="true"
           sodipodi:arc-type="arc"
           d="m 145.92916,129.37181 a 9.2608891,9.2608891 0 0 1 -9.21389,9.26077 9.2608891,9.2608891 0 0 1 -9.30741,-9.16677 9.2608891,9.2608891 0 0 1 9.11942,-9.35381 9.2608891,9.2608891 0 0 1 9.39997,9.07183"
           transform="matrix(0.73529738,0,0,0.77026989,-51.212016,68.480109)" /><path
           style="fill:url(#radialGradient215);fill-opacity:1;stroke:#0000ff;stroke-width:0.450001;filter:url(#filter215)"
           id="path208"
           sodipodi:type="arc"
           sodipodi:cx="169.4088"
           sodipodi:cy="120.04948"
           sodipodi:rx="9.2608891"
           sodipodi:ry="9.2608891"
           sodipodi:start="0"
           sodipodi:end="6.2628855"
           sodipodi:open="true"
           sodipodi:arc-type="arc"
           d="m 178.66969,120.04948 a 9.2608891,9.2608891 0 0 1 -9.21389,9.26077 9.2608891,9.2608891 0 0 1 -9.30741,-9.16678 9.2608891,9.2608891 0 0 1 9.11942,-9.35381 9.2608891,9.2608891 0 0 1 9.39997,9.07184"
           inkscape:transform-center-x="-5.2384827"
           inkscape:transform-center-y="-5.6126601"
           transform="matrix(0.73529738,0,0,0.77026989,-51.212016,68.480109)" /><path
           style="fill:url(#radialGradient238);fill-opacity:1;stroke:none;stroke-width:0.450001;filter:url(#filter238)"
           id="path209"
           sodipodi:type="arc"
           sodipodi:cx="179.0732"
           sodipodi:cy="152.94498"
           sodipodi:rx="9.2608891"
           sodipodi:ry="9.2608891"
           sodipodi:start="0"
           sodipodi:end="6.2628855"
           sodipodi:open="true"
           sodipodi:arc-type="arc"
           d="m 188.33409,152.94498 a 9.2608891,9.2608891 0 0 1 -9.2139,9.26077 9.2608891,9.2608891 0 0 1 -9.30741,-9.16678 9.2608891,9.2608891 0 0 1 9.11943,-9.35381 9.2608891,9.2608891 0 0 1 9.39997,9.07184"
           transform="matrix(0.73529738,0,0,0.77026989,-51.212016,68.480109)" /><path
           style="opacity:0.995575;fill:url(#radialGradient234);fill-opacity:1;stroke:none;stroke-width:0.450001;filter:url(#filter234)"
           id="path210"
           sodipodi:type="arc"
           sodipodi:cx="145.83563"
           sodipodi:cy="161.20898"
           sodipodi:rx="9.2608891"
           sodipodi:ry="9.2608891"
           sodipodi:start="0"
           sodipodi:end="6.2628855"
           sodipodi:open="true"
           sodipodi:arc-type="arc"
           d="m 155.09652,161.20898 a 9.2608891,9.2608891 0 0 1 -9.21389,9.26077 9.2608891,9.2608891 0 0 1 -9.30741,-9.16677 9.2608891,9.2608891 0 0 1 9.11942,-9.35381 9.2608891,9.2608891 0 0 1 9.39997,9.07183"
           transform="matrix(0.73529738,0,0,0.77026989,-51.212016,68.480109)" /><path
           style="opacity:0.996269;fill:url(#radialGradient244);fill-opacity:1;stroke:none;stroke-width:0.538754;filter:url(#filter244)"
           id="path211"
           sodipodi:type="arc"
           sodipodi:cx="157.9964"
           sodipodi:cy="141.53258"
           sodipodi:rx="11.087398"
           sodipodi:ry="11.087398"
           sodipodi:start="0"
           sodipodi:end="6.2628855"
           sodipodi:open="true"
           sodipodi:arc-type="arc"
           d="m 169.0838,141.53258 a 11.087398,11.087398 0 0 1 -11.03113,11.08725 11.087398,11.087398 0 0 1 -11.1431,-10.97472 11.087398,11.087398 0 0 1 10.91803,-11.19865 11.087398,11.087398 0 0 1 11.25391,10.86106"
           transform="matrix(0.73529738,0,0,0.77026989,-51.212016,68.480109)" /></g><g
         id="g1"
         transform="translate(44.979167,57.150032)"><g
           id="text257"
           style="font-size:24.0637px;line-height:0.8;font-family:'AR CENA';-inkscape-font-specification:'AR CENA, Normal';text-align:end;letter-spacing:0.322281px;word-spacing:0.0644562px;text-anchor:end;opacity:0.996269;fill:#800080;stroke:none;stroke-width:0.548132;stroke-opacity:0.995781"
           aria-label="Manola&#10;Media"
           transform="matrix(1.1224116,0,0,1.1224116,-45.557583,-28.790447)"><path
             style="stroke:none;stroke-width:0.548131"
             d="m 88.411147,112.93123 q 0.601592,0 0.986611,0.28877 0.38502,0.28876 0.601593,0.84223 -0.529401,2.55075 -0.745975,5.34214 -0.192509,2.79139 -0.192509,5.82341 0,0.45721 0.168446,1.80478 0.09625,0.77004 0.09625,1.08287 0,0.38502 -0.45721,0.64972 -0.45721,0.24063 -0.890357,0.24063 -0.91442,0 -1.275376,-0.77004 -0.264701,-0.55346 -0.264701,-1.66039 0,-0.2647 0,-0.5294 0,-0.2647 0.02406,-0.5294 0,-1.15506 0.168446,-4.54804 0.09625,-1.94916 0.09625,-2.74326 -0.890357,1.15505 -1.612268,2.21386 -0.986612,1.41975 -1.395695,2.33417 -0.2647,0.79411 -0.529401,1.56415 -0.144382,0.0481 -0.336892,0.12031 -0.168446,0.0481 -0.264701,0.0481 -1.467885,0 -2.719198,-3.60955 -0.433146,-1.29944 -0.842229,-2.62295 -0.288764,2.88765 -0.288764,5.79935 0,0.67379 0.120318,1.54008 0.288764,2.09354 0.288764,2.55075 0,0.40909 -0.481274,0.64972 -0.481274,0.24064 -0.91442,0.24064 -0.938484,0 -1.323504,-1.37163 -0.2647,-0.96255 -0.2647,-2.76733 0,-0.5294 0,-0.98661 0,-0.45721 0.02406,-0.86629 v -1.41976 q 0,-2.35824 0.120319,-4.09083 0.144382,-1.73258 0.601592,-3.05609 0.553465,-1.61227 1.540077,-1.61227 1.130994,0 1.852905,1.01068 0.02406,0.0241 0.09625,0.28876 0.07219,0.2647 0.09625,0.36096 0.312828,1.27538 0.866293,2.74326 0.360955,0.93849 1.10693,2.67107 1.780714,-2.7192 2.719198,-3.97051 2.286052,-3.05609 3.224536,-3.05609 z m 5.52003,15.83392 q -1.179121,0 -1.973223,-0.6016 -0.914421,-0.69784 -0.914421,-1.82884 0,-1.92509 1.852905,-3.29672 1.516013,-1.131 3.633619,-1.49195 l 0.02406,-0.57753 q 0,-0.62566 -0.07219,-0.8663 -0.144382,-0.50533 -0.601592,-0.50533 -0.625656,0 -1.10693,0.62565 -1.082867,1.3957 -1.443822,1.3957 -0.385019,0 -0.721911,-0.2647 -0.312828,-0.28877 -0.312828,-0.69785 0,-1.0588 1.347567,-2.11761 1.347567,-1.0588 2.454497,-1.0588 1.684459,0 2.382307,1.54008 0.529401,1.15506 0.529401,3.32079 0,0.96255 -0.04813,1.70852 -0.04813,0.74598 -0.09625,1.75665 0,0.40908 0.120318,0.93849 0.144382,0.50533 0.288765,1.03473 0,0.45721 -0.529402,0.8663 -0.505337,0.38502 -1.010675,0.38502 -0.45721,0 -0.770039,-0.3369 -0.312828,-0.33689 -0.45721,-0.81816 -1.155057,0.89036 -2.574816,0.89036 z m -0.577529,-2.7192 q 0,0.57753 0.721911,0.57753 0.673784,0 1.467886,-0.43315 0.794102,-0.43315 0.962548,-1.03474 0.04813,-0.21657 0.04813,-0.48127 0,-0.2647 0,-0.40909 v -0.5294 q -1.010676,0 -2.021351,0.62566 -1.179122,0.72191 -1.179122,1.68446 z m 13.846082,-8.47042 q 1.15506,0 1.5882,2.1176 0.24064,1.17912 0.24064,3.05609 v 0.96255 q 0,2.16573 -0.21657,3.32079 -0.36096,1.94916 -1.32351,1.94916 -0.43314,0 -0.86629,-0.31283 -0.40908,-0.31283 -0.40908,-0.72191 0,-0.60159 0.21657,-1.90103 0.21657,-1.29944 0.21657,-1.97323 0,-1.01067 -0.0241,-1.34756 -0.0963,-1.20319 -0.36096,-1.20319 -1.15505,0.72191 -2.02135,2.91171 -0.84223,2.16573 -0.84223,3.75394 0,0.38502 -0.40908,0.64972 -0.38502,0.24063 -0.7941,0.24063 -0.62566,0 -0.86629,-0.5294 -0.21658,-0.5294 -0.21658,-1.25131 0,-1.17912 0.33689,-4.69242 0.16845,-1.75665 0.16845,-2.81545 0,-0.31283 -0.14438,-0.89036 -0.12032,-0.57753 -0.12032,-0.74598 0,-0.43314 0.48127,-0.64972 0.48128,-0.24063 0.93849,-0.24063 0.69785,0 1.01067,0.64972 0.24064,0.50534 0.24064,1.46788 0,0.45721 -0.0722,1.22725 -0.0722,0.77004 -0.0722,0.98661 0.7941,-1.63633 1.29944,-2.40637 1.08286,-1.61226 2.02135,-1.61226 z m 8.98521,-0.12032 q 1.54007,0 2.33418,1.49195 0.64972,1.20318 0.64972,2.88764 0,2.59888 -1.01068,4.62023 -1.27538,2.57482 -3.60956,2.57482 -1.78071,0 -2.69513,-1.27538 -0.81817,-1.15506 -0.81817,-3.00796 0,-1.78072 0.79411,-4.21115 1.01067,-3.05609 2.35824,-3.05609 0.48127,0 0.7941,0.38502 0.55347,-0.40908 1.20319,-0.40908 z m -2.91171,7.60413 q 0,1.01067 0.28876,1.44382 0.31283,0.43314 0.84223,0.43314 1.17912,0 1.90103,-2.16573 0.55347,-1.68446 0.55347,-3.17641 0,-0.77003 -0.16845,-1.25131 -0.2647,-0.74597 -0.89035,-0.74597 -0.64972,0 -1.05881,0.74597 -0.38501,0.74598 -0.67378,0.62566 -0.38502,1.10693 -0.60159,2.06948 -0.19251,0.96254 -0.19251,2.02135 z m 9.34619,3.94644 q -0.84223,0 -1.22725,-0.7941 -0.28876,-0.60159 -0.28876,-1.54008 0,-1.70852 0.14438,-3.68174 0.14438,-1.97323 0.28876,-4.11489 0.16845,-2.16574 0.16845,-3.53737 0,-0.12032 -0.0963,-0.50534 -0.0722,-0.38502 -0.0722,-0.55346 0,-0.38502 0.5294,-0.64972 0.5294,-0.2647 0.98662,-0.2647 0.5294,0 0.84222,0.28876 0.3369,0.2647 0.3369,0.7941 0,0.50534 -0.12032,1.32351 -0.0963,0.81816 -0.19251,1.54008 -0.40908,4.13895 -0.40908,8.10946 0,0.40908 0.0962,1.01068 0.21657,1.34756 0.21657,1.63633 0,0.40908 -0.38502,0.67378 -0.38501,0.2647 -0.81816,0.2647 z m 5.47192,-0.24063 q -1.17912,0 -1.97322,-0.6016 -0.91442,-0.69784 -0.91442,-1.82884 0,-1.92509 1.8529,-3.29672 1.51602,-1.131 3.63362,-1.49195 l 0.0241,-0.57753 q 0,-0.62566 -0.0722,-0.8663 -0.14438,-0.50533 -0.60159,-0.50533 -0.62566,0 -1.10693,0.62565 -1.08287,1.3957 -1.44382,1.3957 -0.38502,0 -0.72191,-0.2647 -0.31283,-0.28877 -0.31283,-0.69785 0,-1.0588 1.34757,-2.11761 1.34756,-1.0588 2.45449,-1.0588 1.68446,0 2.38231,1.54008 0.5294,1.15506 0.5294,3.32079 0,0.96255 -0.0481,1.70852 -0.0481,0.74598 -0.0962,1.75665 0,0.40908 0.12032,0.93849 0.14438,0.50533 0.28876,1.03473 0,0.45721 -0.5294,0.8663 -0.50534,0.38502 -1.01067,0.38502 -0.45721,0 -0.77004,-0.3369 -0.31283,-0.33689 -0.45721,-0.81816 -1.15506,0.89036 -2.57482,0.89036 z m -0.57753,-2.7192 q 0,0.57753 0.72191,0.57753 0.67379,0 1.46789,-0.43315 0.7941,-0.43315 0.96255,-1.03474 0.0481,-0.21657 0.0481,-0.48127 0,-0.2647 0,-0.40909 v -0.5294 q -1.01067,0 -2.02135,0.62566 -1.17912,0.72191 -1.17912,1.68446 z"
             id="path258" /><path
             style="stroke:none;stroke-width:0.548131"
             d="m 96.996774,132.18219 q 0.601592,0 0.986611,0.28877 0.38502,0.28876 0.601593,0.84223 -0.529401,2.55075 -0.745975,5.34214 -0.192509,2.79139 -0.192509,5.82341 0,0.45721 0.168446,1.80478 0.09625,0.77004 0.09625,1.08287 0,0.38502 -0.45721,0.64972 -0.45721,0.24063 -0.890357,0.24063 -0.91442,0 -1.275376,-0.77004 -0.264701,-0.55346 -0.264701,-1.66039 0,-0.2647 0,-0.5294 0,-0.2647 0.02406,-0.5294 0,-1.15506 0.168446,-4.54804 0.09625,-1.94916 0.09625,-2.74326 -0.890357,1.15505 -1.612268,2.21386 -0.986612,1.41975 -1.395695,2.33417 -0.2647,0.79411 -0.529401,1.56415 -0.144382,0.0481 -0.336892,0.12031 -0.168446,0.0481 -0.264701,0.0481 -1.467885,0 -2.719198,-3.60955 -0.433146,-1.29944 -0.842229,-2.62295 -0.288765,2.88765 -0.288765,5.79935 0,0.67379 0.120319,1.54008 0.288764,2.09354 0.288764,2.55075 0,0.40909 -0.481274,0.64972 -0.481274,0.24064 -0.91442,0.24064 -0.938484,0 -1.323504,-1.37163 -0.2647,-0.96255 -0.2647,-2.76733 0,-0.5294 0,-0.98661 0,-0.45721 0.02406,-0.86629 v -1.41976 q 0,-2.35824 0.120319,-4.09083 0.144382,-1.73258 0.601592,-3.05609 0.553465,-1.61227 1.540077,-1.61227 1.130994,0 1.852905,1.01068 0.02406,0.0241 0.09625,0.28876 0.07219,0.2647 0.09625,0.36096 0.312828,1.27538 0.866293,2.74326 0.360955,0.93849 1.10693,2.67107 1.780714,-2.7192 2.719198,-3.97051 2.286051,-3.05609 3.224536,-3.05609 z m 6.747276,13.95695 q 1.37163,0 2.23793,-0.96255 0.7941,-1.0588 1.5882,-2.11761 0.5294,0 0.91442,0.36096 0.38502,0.36095 0.38502,0.89036 0,1.49195 -1.75665,2.76732 -1.63633,1.17912 -3.20047,1.17912 -1.70852,0 -2.83952,-1.01067 -1.130992,-1.03474 -1.130992,-2.74326 0,-2.23793 1.588202,-4.81274 1.75665,-2.86358 3.82613,-2.86358 1.03474,0 1.6604,0.77003 0.64972,0.74598 0.64972,1.80478 0,1.94916 -1.75665,3.56143 -1.54008,1.41976 -3.63362,1.9251 0.2647,1.25131 1.46788,1.25131 z m 1.87697,-6.93035 q 0,-0.36095 -0.28876,-0.36095 -0.72191,0 -1.63633,1.49195 -0.69785,1.15505 -1.03474,2.21386 0.93848,-0.50534 1.8529,-1.41976 1.10693,-1.10693 1.10693,-1.9251 z m 11.15093,-5.24588 q 0,-0.43315 0.31283,-0.62566 0.33689,-0.19251 0.81816,-0.19251 0.57753,0 0.96255,0.33689 0.40908,0.31283 0.40908,0.89036 0,1.27537 -0.24063,3.10422 -0.55347,4.21114 -0.55347,5.31807 0,0.72191 0.33689,2.7192 0.16845,1.01068 0.16845,1.56414 0,0.33689 -0.43315,0.62566 -0.40908,0.2647 -0.77003,0.2647 -0.6016,0 -0.91443,-0.45721 -0.31282,-0.45721 -0.45721,-1.75665 -0.50533,1.0588 -1.25131,1.70852 -0.91442,0.7941 -1.94916,0.7941 -1.46788,0 -2.28605,-1.3235 -0.69785,-1.13099 -0.69785,-2.69513 0,-2.23793 1.10693,-4.66836 1.34757,-2.95984 3.29673,-2.95984 0.5294,0 0.96255,0.24064 0.45721,0.24064 0.86629,0.69785 0.12032,-0.74598 0.21658,-1.75665 0.0962,-1.03474 0.0962,-1.82884 z m -1.87697,4.95712 q -0.93848,0 -1.68446,2.40637 -0.62565,2.02135 -0.62565,3.34485 0,0.55347 0.12031,1.03474 0.14439,0.48127 0.57753,0.48127 0.98662,0 1.82884,-2.23792 0.69785,-1.87697 0.69785,-3.12828 0,-0.74597 -0.12032,-1.15506 -0.21657,-0.74597 -0.7941,-0.74597 z m 7.56544,9.31265 q -0.84223,0 -1.22725,-0.74598 -0.28876,-0.55346 -0.28876,-1.51601 0,-1.22725 0.19251,-3.70581 0.1925,-2.47856 0.1925,-3.75394 0,-0.14438 -0.0722,-0.45721 -0.0722,-0.31282 -0.0722,-0.45721 0,-0.43314 0.48128,-0.64972 0.50533,-0.21657 1.01067,-0.21657 0.55347,0 0.8663,0.24064 0.33689,0.24063 0.33689,0.77004 0,1.03474 -0.2647,3.56142 -0.2647,2.52669 -0.2647,3.82613 0,0.36096 0.0722,0.84223 0.16844,1.131 0.16844,1.37163 0,0.38502 -0.36095,0.64972 -0.36096,0.24064 -0.77004,0.24064 z m 0.21657,-15.23232 q 0.62566,0 1.17912,0.33689 0.55347,0.33689 0.55347,0.93848 0,0.52941 -0.40908,0.81817 -0.38502,0.28876 -0.93849,0.28876 -0.67378,0 -1.22725,-0.36095 -0.55346,-0.36096 -0.55346,-0.98661 0,-0.48128 0.45721,-0.74598 0.45721,-0.28876 0.93848,-0.28876 z m 5.73663,15.01575 q -1.17912,0 -1.97322,-0.6016 -0.91442,-0.69784 -0.91442,-1.82884 0,-1.92509 1.85291,-3.29672 1.51601,-1.131 3.63361,-1.49195 l 0.0241,-0.57753 q 0,-0.62566 -0.0722,-0.8663 -0.14439,-0.50533 -0.6016,-0.50533 -0.62565,0 -1.10693,0.62565 -1.08286,1.3957 -1.44382,1.3957 -0.38502,0 -0.72191,-0.2647 -0.31283,-0.28877 -0.31283,-0.69785 0,-1.0588 1.34757,-2.11761 1.34757,-1.0588 2.4545,-1.0588 1.68446,0 2.3823,1.54008 0.5294,1.15506 0.5294,3.32079 0,0.96255 -0.0481,1.70852 -0.0481,0.74598 -0.0963,1.75665 0,0.40908 0.12032,0.93849 0.14438,0.50533 0.28877,1.03473 0,0.45721 -0.52941,0.8663 -0.50533,0.38502 -1.01067,0.38502 -0.45721,0 -0.77004,-0.33689 -0.31283,-0.3369 -0.45721,-0.81817 -1.15506,0.89036 -2.57482,0.89036 z m -0.57752,-2.7192 q 0,0.57753 0.72191,0.57753 0.67378,0 1.46788,-0.43315 0.7941,-0.43315 0.96255,-1.03474 0.0481,-0.21657 0.0481,-0.48127 0,-0.2647 0,-0.40909 v -0.5294 q -1.01068,0 -2.02135,0.62566 -1.17912,0.72191 -1.17912,1.68446 z"
             id="path259" /></g><g
           id="g265"
           style="font-size:24.0637px;line-height:0.8;font-family:'AR CENA';-inkscape-font-specification:'AR CENA, Normal';text-align:end;letter-spacing:0.322281px;word-spacing:0.0644562px;text-anchor:end;opacity:0.996269;fill:#800080;stroke:#ac64de;stroke-width:0.548132;stroke-opacity:0.995781"
           aria-label="Manola&#10;Media"
           transform="matrix(1.1224116,0,0,1.1224116,-47.364002,-28.790447)"><path
             style="stroke:#ac64de;stroke-width:0.548131;stroke-opacity:0.995781"
             d="m 88.411147,112.93123 q 0.601592,0 0.986611,0.28877 0.38502,0.28876 0.601593,0.84223 -0.529401,2.55075 -0.745975,5.34214 -0.192509,2.79139 -0.192509,5.82341 0,0.45721 0.168446,1.80478 0.09625,0.77004 0.09625,1.08287 0,0.38502 -0.45721,0.64972 -0.45721,0.24063 -0.890357,0.24063 -0.91442,0 -1.275376,-0.77004 -0.264701,-0.55346 -0.264701,-1.66039 0,-0.2647 0,-0.5294 0,-0.2647 0.02406,-0.5294 0,-1.15506 0.168446,-4.54804 0.09625,-1.94916 0.09625,-2.74326 -0.890357,1.15505 -1.612268,2.21386 -0.986612,1.41975 -1.395695,2.33417 -0.2647,0.79411 -0.529401,1.56415 -0.144382,0.0481 -0.336892,0.12031 -0.168446,0.0481 -0.264701,0.0481 -1.467885,0 -2.719198,-3.60955 -0.433146,-1.29944 -0.842229,-2.62295 -0.288764,2.88765 -0.288764,5.79935 0,0.67379 0.120318,1.54008 0.288764,2.09354 0.288764,2.55075 0,0.40909 -0.481274,0.64972 -0.481274,0.24064 -0.91442,0.24064 -0.938484,0 -1.323504,-1.37163 -0.2647,-0.96255 -0.2647,-2.76733 0,-0.5294 0,-0.98661 0,-0.45721 0.02406,-0.86629 v -1.41976 q 0,-2.35824 0.120319,-4.09083 0.144382,-1.73258 0.601592,-3.05609 0.553465,-1.61227 1.540077,-1.61227 1.130994,0 1.852905,1.01068 0.02406,0.0241 0.09625,0.28876 0.07219,0.2647 0.09625,0.36096 0.312828,1.27538 0.866293,2.74326 0.360955,0.93849 1.10693,2.67107 1.780714,-2.7192 2.719198,-3.97051 2.286052,-3.05609 3.224536,-3.05609 z m 5.52003,15.83392 q -1.179121,0 -1.973223,-0.6016 -0.914421,-0.69784 -0.914421,-1.82884 0,-1.92509 1.852905,-3.29672 1.516013,-1.131 3.633619,-1.49195 l 0.02406,-0.57753 q 0,-0.62566 -0.07219,-0.8663 -0.144382,-0.50533 -0.601592,-0.50533 -0.625656,0 -1.10693,0.62565 -1.082867,1.3957 -1.443822,1.3957 -0.385019,0 -0.721911,-0.2647 -0.312828,-0.28877 -0.312828,-0.69785 0,-1.0588 1.347567,-2.11761 1.347567,-1.0588 2.454497,-1.0588 1.684459,0 2.382307,1.54008 0.529401,1.15506 0.529401,3.32079 0,0.96255 -0.04813,1.70852 -0.04813,0.74598 -0.09625,1.75665 0,0.40908 0.120318,0.93849 0.144382,0.50533 0.288765,1.03473 0,0.45721 -0.529402,0.8663 -0.505337,0.38502 -1.010675,0.38502 -0.45721,0 -0.770039,-0.3369 -0.312828,-0.33689 -0.45721,-0.81816 -1.155057,0.89036 -2.574816,0.89036 z m -0.577529,-2.7192 q 0,0.57753 0.721911,0.57753 0.673784,0 1.467886,-0.43315 0.794102,-0.43315 0.962548,-1.03474 0.04813,-0.21657 0.04813,-0.48127 0,-0.2647 0,-0.40909 v -0.5294 q -1.010676,0 -2.021351,0.62566 -1.179122,0.72191 -1.179122,1.68446 z m 13.846082,-8.47042 q 1.15506,0 1.5882,2.1176 0.24064,1.17912 0.24064,3.05609 v 0.96255 q 0,2.16573 -0.21657,3.32079 -0.36096,1.94916 -1.32351,1.94916 -0.43314,0 -0.86629,-0.31283 -0.40908,-0.31283 -0.40908,-0.72191 0,-0.60159 0.21657,-1.90103 0.21657,-1.29944 0.21657,-1.97323 0,-1.01067 -0.0241,-1.34756 -0.0963,-1.20319 -0.36096,-1.20319 -1.15505,0.72191 -2.02135,2.91171 -0.84223,2.16573 -0.84223,3.75394 0,0.38502 -0.40908,0.64972 -0.38502,0.24063 -0.7941,0.24063 -0.62566,0 -0.86629,-0.5294 -0.21658,-0.5294 -0.21658,-1.25131 0,-1.17912 0.33689,-4.69242 0.16845,-1.75665 0.16845,-2.81545 0,-0.31283 -0.14438,-0.89036 -0.12032,-0.57753 -0.12032,-0.74598 0,-0.43314 0.48127,-0.64972 0.48128,-0.24063 0.93849,-0.24063 0.69785,0 1.01067,0.64972 0.24064,0.50534 0.24064,1.46788 0,0.45721 -0.0722,1.22725 -0.0722,0.77004 -0.0722,0.98661 0.7941,-1.63633 1.29944,-2.40637 1.08286,-1.61226 2.02135,-1.61226 z m 8.98521,-0.12032 q 1.54007,0 2.33418,1.49195 0.64972,1.20318 0.64972,2.88764 0,2.59888 -1.01068,4.62023 -1.27538,2.57482 -3.60956,2.57482 -1.78071,0 -2.69513,-1.27538 -0.81817,-1.15506 -0.81817,-3.00796 0,-1.78072 0.79411,-4.21115 1.01067,-3.05609 2.35824,-3.05609 0.48127,0 0.7941,0.38502 0.55347,-0.40908 1.20319,-0.40908 z m -2.91171,7.60413 q 0,1.01067 0.28876,1.44382 0.31283,0.43314 0.84223,0.43314 1.17912,0 1.90103,-2.16573 0.55347,-1.68446 0.55347,-3.17641 0,-0.77003 -0.16845,-1.25131 -0.2647,-0.74597 -0.89035,-0.74597 -0.64972,0 -1.05881,0.74597 -0.38501,0.74598 -0.67378,0.62566 -0.38502,1.10693 -0.60159,2.06948 -0.19251,0.96254 -0.19251,2.02135 z m 9.34619,3.94644 q -0.84223,0 -1.22725,-0.7941 -0.28876,-0.60159 -0.28876,-1.54008 0,-1.70852 0.14438,-3.68174 0.14438,-1.97323 0.28876,-4.11489 0.16845,-2.16574 0.16845,-3.53737 0,-0.12032 -0.0963,-0.50534 -0.0722,-0.38502 -0.0722,-0.55346 0,-0.38502 0.5294,-0.64972 0.5294,-0.2647 0.98662,-0.2647 0.5294,0 0.84222,0.28876 0.3369,0.2647 0.3369,0.7941 0,0.50534 -0.12032,1.32351 -0.0963,0.81816 -0.19251,1.54008 -0.40908,4.13895 -0.40908,8.10946 0,0.40908 0.0962,1.01068 0.21657,1.34756 0.21657,1.63633 0,0.40908 -0.38502,0.67378 -0.38501,0.2647 -0.81816,0.2647 z m 5.47192,-0.24063 q -1.17912,0 -1.97322,-0.6016 -0.91442,-0.69784 -0.91442,-1.82884 0,-1.92509 1.8529,-3.29672 1.51602,-1.131 3.63362,-1.49195 l 0.0241,-0.57753 q 0,-0.62566 -0.0722,-0.8663 -0.14438,-0.50533 -0.60159,-0.50533 -0.62566,0 -1.10693,0.62565 -1.08287,1.3957 -1.44382,1.3957 -0.38502,0 -0.72191,-0.2647 -0.31283,-0.28877 -0.31283,-0.69785 0,-1.0588 1.34757,-2.11761 1.34756,-1.0588 2.45449,-1.0588 1.68446,0 2.38231,1.54008 0.5294,1.15506 0.5294,3.32079 0,0.96255 -0.0481,1.70852 -0.0481,0.74598 -0.0962,1.75665 0,0.40908 0.12032,0.93849 0.14438,0.50533 0.28876,1.03473 0,0.45721 -0.5294,0.8663 -0.50534,0.38502 -1.01067,0.38502 -0.45721,0 -0.77004,-0.3369 -0.31283,-0.33689 -0.45721,-0.81816 -1.15506,0.89036 -2.57482,0.89036 z m -0.57753,-2.7192 q 0,0.57753 0.72191,0.57753 0.67379,0 1.46789,-0.43315 0.7941,-0.43315 0.96255,-1.03474 0.0481,-0.21657 0.0481,-0.48127 0,-0.2647 0,-0.40909 v -0.5294 q -1.01067,0 -2.02135,0.62566 -1.17912,0.72191 -1.17912,1.68446 z"
             id="path264" /><path
             style="stroke:#ac64de;stroke-width:0.548131;stroke-opacity:0.995781"
             d="m 96.996774,132.18219 q 0.601592,0 0.986611,0.28877 0.38502,0.28876 0.601593,0.84223 -0.529401,2.55075 -0.745975,5.34214 -0.192509,2.79139 -0.192509,5.82341 0,0.45721 0.168446,1.80478 0.09625,0.77004 0.09625,1.08287 0,0.38502 -0.45721,0.64972 -0.45721,0.24063 -0.890357,0.24063 -0.91442,0 -1.275376,-0.77004 -0.264701,-0.55346 -0.264701,-1.66039 0,-0.2647 0,-0.5294 0,-0.2647 0.02406,-0.5294 0,-1.15506 0.168446,-4.54804 0.09625,-1.94916 0.09625,-2.74326 -0.890357,1.15505 -1.612268,2.21386 -0.986612,1.41975 -1.395695,2.33417 -0.2647,0.79411 -0.529401,1.56415 -0.144382,0.0481 -0.336892,0.12031 -0.168446,0.0481 -0.264701,0.0481 -1.467885,0 -2.719198,-3.60955 -0.433146,-1.29944 -0.842229,-2.62295 -0.288765,2.88765 -0.288765,5.79935 0,0.67379 0.120319,1.54008 0.288764,2.09354 0.288764,2.55075 0,0.40909 -0.481274,0.64972 -0.481274,0.24064 -0.91442,0.24064 -0.938484,0 -1.323504,-1.37163 -0.2647,-0.96255 -0.2647,-2.76733 0,-0.5294 0,-0.98661 0,-0.45721 0.02406,-0.86629 v -1.41976 q 0,-2.35824 0.120319,-4.09083 0.144382,-1.73258 0.601592,-3.05609 0.553465,-1.61227 1.540077,-1.61227 1.130994,0 1.852905,1.01068 0.02406,0.0241 0.09625,0.28876 0.07219,0.2647 0.09625,0.36096 0.312828,1.27538 0.866293,2.74326 0.360955,0.93849 1.10693,2.67107 1.780714,-2.7192 2.719198,-3.97051 2.286051,-3.05609 3.224536,-3.05609 z m 6.747276,13.95695 q 1.37163,0 2.23793,-0.96255 0.7941,-1.0588 1.5882,-2.11761 0.5294,0 0.91442,0.36096 0.38502,0.36095 0.38502,0.89036 0,1.49195 -1.75665,2.76732 -1.63633,1.17912 -3.20047,1.17912 -1.70852,0 -2.83952,-1.01067 -1.130992,-1.03474 -1.130992,-2.74326 0,-2.23793 1.588202,-4.81274 1.75665,-2.86358 3.82613,-2.86358 1.03474,0 1.6604,0.77003 0.64972,0.74598 0.64972,1.80478 0,1.94916 -1.75665,3.56143 -1.54008,1.41976 -3.63362,1.9251 0.2647,1.25131 1.46788,1.25131 z m 1.87697,-6.93035 q 0,-0.36095 -0.28876,-0.36095 -0.72191,0 -1.63633,1.49195 -0.69785,1.15505 -1.03474,2.21386 0.93848,-0.50534 1.8529,-1.41976 1.10693,-1.10693 1.10693,-1.9251 z m 11.15093,-5.24588 q 0,-0.43315 0.31283,-0.62566 0.33689,-0.19251 0.81816,-0.19251 0.57753,0 0.96255,0.33689 0.40908,0.31283 0.40908,0.89036 0,1.27537 -0.24063,3.10422 -0.55347,4.21114 -0.55347,5.31807 0,0.72191 0.33689,2.7192 0.16845,1.01068 0.16845,1.56414 0,0.33689 -0.43315,0.62566 -0.40908,0.2647 -0.77003,0.2647 -0.6016,0 -0.91443,-0.45721 -0.31282,-0.45721 -0.45721,-1.75665 -0.50533,1.0588 -1.25131,1.70852 -0.91442,0.7941 -1.94916,0.7941 -1.46788,0 -2.28605,-1.3235 -0.69785,-1.13099 -0.69785,-2.69513 0,-2.23793 1.10693,-4.66836 1.34757,-2.95984 3.29673,-2.95984 0.5294,0 0.96255,0.24064 0.45721,0.24064 0.86629,0.69785 0.12032,-0.74598 0.21658,-1.75665 0.0962,-1.03474 0.0962,-1.82884 z m -1.87697,4.95712 q -0.93848,0 -1.68446,2.40637 -0.62565,2.02135 -0.62565,3.34485 0,0.55347 0.12031,1.03474 0.14439,0.48127 0.57753,0.48127 0.98662,0 1.82884,-2.23792 0.69785,-1.87697 0.69785,-3.12828 0,-0.74597 -0.12032,-1.15506 -0.21657,-0.74597 -0.7941,-0.74597 z m 7.56544,9.31265 q -0.84223,0 -1.22725,-0.74598 -0.28876,-0.55346 -0.28876,-1.51601 0,-1.22725 0.19251,-3.70581 0.1925,-2.47856 0.1925,-3.75394 0,-0.14438 -0.0722,-0.45721 -0.0722,-0.31282 -0.0722,-0.45721 0,-0.43314 0.48128,-0.64972 0.50533,-0.21657 1.01067,-0.21657 0.55347,0 0.8663,0.24064 0.33689,0.24063 0.33689,0.77004 0,1.03474 -0.2647,3.56142 -0.2647,2.52669 -0.2647,3.82613 0,0.36096 0.0722,0.84223 0.16844,1.131 0.16844,1.37163 0,0.38502 -0.36095,0.64972 -0.36096,0.24064 -0.77004,0.24064 z m 0.21657,-15.23232 q 0.62566,0 1.17912,0.33689 0.55347,0.33689 0.55347,0.93848 0,0.52941 -0.40908,0.81817 -0.38502,0.28876 -0.93849,0.28876 -0.67378,0 -1.22725,-0.36095 -0.55346,-0.36096 -0.55346,-0.98661 0,-0.48128 0.45721,-0.74598 0.45721,-0.28876 0.93848,-0.28876 z m 5.73663,15.01575 q -1.17912,0 -1.97322,-0.6016 -0.91442,-0.69784 -0.91442,-1.82884 0,-1.92509 1.85291,-3.29672 1.51601,-1.131 3.63361,-1.49195 l 0.0241,-0.57753 q 0,-0.62566 -0.0722,-0.8663 -0.14439,-0.50533 -0.6016,-0.50533 -0.62565,0 -1.10693,0.62565 -1.08286,1.3957 -1.44382,1.3957 -0.38502,0 -0.72191,-0.2647 -0.31283,-0.28877 -0.31283,-0.69785 0,-1.0588 1.34757,-2.11761 1.34757,-1.0588 2.4545,-1.0588 1.68446,0 2.3823,1.54008 0.5294,1.15506 0.5294,3.32079 0,0.96255 -0.0481,1.70852 -0.0481,0.74598 -0.0963,1.75665 0,0.40908 0.12032,0.93849 0.14438,0.50533 0.28877,1.03473 0,0.45721 -0.52941,0.8663 -0.50533,0.38502 -1.01067,0.38502 -0.45721,0 -0.77004,-0.33689 -0.31283,-0.3369 -0.45721,-0.81817 -1.15506,0.89036 -2.57482,0.89036 z m -0.57752,-2.7192 q 0,0.57753 0.72191,0.57753 0.67378,0 1.46788,-0.43315 0.7941,-0.43315 0.96255,-1.03474 0.0481,-0.21657 0.0481,-0.48127 0,-0.2647 0,-0.40909 v -0.5294 q -1.01068,0 -2.02135,0.62566 -1.17912,0.72191 -1.17912,1.68446 z"
             id="path265" /></g></g></g></g></svg>
